<?xml version="1.0" encoding="UTF-8"?>
<!DOCTYPE svg PUBLIC "-//W3C//DTD SVG 1.1//EN" "http://www.w3.org/Graphics/SVG/1.1/DTD/svg11.dtd">
<svg xmlns="http://www.w3.org/2000/svg" version="1.1" width="512px" height="512px" style="shape-rendering:geometricPrecision; text-rendering:geometricPrecision; image-rendering:optimizeQuality; fill-rule:evenodd; clip-rule:evenodd" xmlns:xlink="http://www.w3.org/1999/xlink">
<g><path style="opacity:0.946" fill="#000000" d="M 218.5,-0.5 C 243.167,-0.5 267.833,-0.5 292.5,-0.5C 303.577,3.41351 310.744,11.0802 314,22.5C 314.5,32.1609 314.666,41.8276 314.5,51.5C 328.203,56.3952 335.203,66.2285 335.5,81C 335.076,92.6831 330.076,101.85 320.5,108.5C 319.334,125.49 319.167,142.49 320,159.5C 389.963,189.144 428.963,241.81 437,317.5C 439.478,392.062 409.311,448.895 346.5,488C 323.915,500.585 299.915,508.418 274.5,511.5C 261.833,511.5 249.167,511.5 236.5,511.5C 156.928,499.429 104.761,455.096 80,378.5C 62.9035,304.685 82.0702,242.185 137.5,191C 153.669,177.826 171.503,167.326 191,159.5C 191.833,142.49 191.666,125.49 190.5,108.5C 174.353,95.904 171.186,80.5707 181,62.5C 184.984,56.9938 190.15,53.3272 196.5,51.5C 196.334,41.8276 196.5,32.1609 197,22.5C 200.256,11.0802 207.423,3.41351 218.5,-0.5 Z M 222.5,20.5 C 244.503,20.3334 266.503,20.5 288.5,21C 290.378,22.5429 291.878,24.3762 293,26.5C 293.5,34.1594 293.666,41.8261 293.5,49.5C 268.167,49.5 242.833,49.5 217.5,49.5C 217.334,41.8261 217.5,34.1594 218,26.5C 219.332,24.34 220.832,22.34 222.5,20.5 Z M 203.5,70.5 C 238.168,70.3333 272.835,70.5 307.5,71C 315.874,76.5324 316.54,82.8657 309.5,90C 305.131,91.4212 301.631,93.9212 299,97.5C 298.333,122.167 298.333,146.833 299,171.5C 299.465,172.931 300.299,174.097 301.5,175C 373.499,201.668 411.832,253.335 416.5,330C 412.829,402.305 377.829,452.639 311.5,481C 242.139,502.62 182.639,487.12 133,434.5C 95.8096,387.877 85.8096,335.877 103,278.5C 122.363,227.471 157.863,192.971 209.5,175C 210.701,174.097 211.535,172.931 212,171.5C 212.667,146.833 212.667,122.167 212,97.5C 209.369,93.9212 205.869,91.4212 201.5,90C 194.524,82.7131 195.191,76.2131 203.5,70.5 Z M 195.5,325.5 C 204.014,325.843 207.514,330.176 206,338.5C 202.034,344.924 196.867,346.091 190.5,342C 186.022,334.602 187.689,329.102 195.5,325.5 Z M 298.5,362.5 C 309.311,361.47 313.477,366.136 311,376.5C 305.999,382.587 300.666,382.92 295,377.5C 292.203,371.496 293.369,366.496 298.5,362.5 Z"/></g>
<g><path style="opacity:0.945" fill="#000000" d="M 142.5,256.5 C 166.502,256.333 190.502,256.5 214.5,257C 220.109,260.277 221.942,265.11 220,271.5C 218.749,274.381 216.583,276.214 213.5,277C 191.594,277.172 169.761,277.672 148,278.5C 128.474,323.809 133.474,366.143 163,405.5C 198.541,445.119 242.041,457.619 293.5,443C 336.083,426.077 362.583,395.244 373,350.5C 377.134,325.438 373.801,301.438 363,278.5C 341.239,277.672 319.406,277.172 297.5,277C 294.417,276.214 292.251,274.381 291,271.5C 289.058,265.11 290.891,260.277 296.5,257C 320.5,256.333 344.5,256.333 368.5,257C 373.877,258.602 378.044,261.769 381,266.5C 406.124,323.293 399.124,375.627 360,423.5C 316.117,468.428 264.284,480.928 204.5,461C 147.51,436.053 117.844,392.387 115.5,330C 115.106,307.637 119.939,286.47 130,266.5C 133.191,261.837 137.358,258.503 142.5,256.5 Z M 195.5,325.5 C 187.689,329.102 186.022,334.602 190.5,342C 196.867,346.091 202.034,344.924 206,338.5C 207.514,330.176 204.014,325.843 195.5,325.5 Z M 298.5,362.5 C 293.369,366.496 292.203,371.496 295,377.5C 300.666,382.92 305.999,382.587 311,376.5C 313.477,366.136 309.311,361.47 298.5,362.5 Z"/></g>
<g><path style="opacity:0.898" fill="#000000" d="M 251.5,256.5 C 262.677,255.832 267.177,260.832 265,271.5C 260.66,277.864 255.16,279.031 248.5,275C 243.291,267.97 244.291,261.804 251.5,256.5 Z"/></g>
<g><path style="opacity:0.883" fill="#000000" d="M 305.5,298.5 C 318.073,298.077 322.073,303.744 317.5,315.5C 310.245,321.374 304.078,320.374 299,312.5C 297.709,306.087 299.876,301.42 305.5,298.5 Z"/></g>
<g><path style="opacity:0.944" fill="#000000" d="M 192.5,304.5 C 217.984,305.15 229.484,318.15 227,343.5C 220.756,360.544 208.59,367.71 190.5,365C 177.109,361.609 169.275,353.109 167,339.5C 166.125,320.89 174.625,309.224 192.5,304.5 Z M 195.5,325.5 C 187.689,329.102 186.022,334.602 190.5,342C 196.867,346.091 202.034,344.924 206,338.5C 207.514,330.176 204.014,325.843 195.5,325.5 Z"/></g>
<g><path style="opacity:0.945" fill="#000000" d="M 295.5,341.5 C 319.996,339.836 332.496,351.17 333,375.5C 329.583,392.082 319.416,401.082 302.5,402.5C 279.652,399.472 269.819,386.472 273,363.5C 276.455,351.876 283.955,344.543 295.5,341.5 Z M 298.5,362.5 C 293.369,366.496 292.203,371.496 295,377.5C 300.666,382.92 305.999,382.587 311,376.5C 313.477,366.136 309.311,361.47 298.5,362.5 Z"/></g>
<g><path style="opacity:0.888" fill="#000000" d="M 227.5,392.5 C 238.625,392.454 242.792,397.788 240,408.5C 236.562,413.081 232.062,414.581 226.5,413C 220.891,409.723 219.058,404.89 221,398.5C 222.494,395.686 224.66,393.686 227.5,392.5 Z"/></g>
</svg>
